HIERARCHY
ROOT root
{
	OFFSET	0	13.1	24.9
	CHANNELS 6  Xposition Yposition Zposition Xrotation Yrotation Zrotation
	JOINT spine_1
	{
		OFFSET	0	9.99999	0
		CHANNELS 3  Xrotation Yrotation Zrotation
		JOINT spine_2
		{
			OFFSET	0	112	-10
			CHANNELS 3  Xrotation Yrotation Zrotation
			JOINT spine_3
			{
				OFFSET	0	206.5	19.3
				CHANNELS 3  Xrotation Yrotation Zrotation
				JOINT spine_4
				{
					OFFSET	0	110.4	14.6
					CHANNELS 3  Xrotation Yrotation Zrotation
					JOINT neck_1
					{
						OFFSET	0	71.8	-50.3
						CHANNELS 3  Xrotation Yrotation Zrotation
						JOINT neck_2
						{
							OFFSET	0	86.2	-25.8
							CHANNELS 3  Xrotation Yrotation Zrotation
							JOINT head_ee
							{
								OFFSET	0	179.8	-8.7
								CHANNELS 3  Xrotation Yrotation Zrotation
								End Site
								{
									OFFSET	1	0	0
								}
							}
						}
					}
					JOINT left_clavicle
					{
						OFFSET	-43.2	22.4	-70.8
						CHANNELS 3  Xrotation Yrotation Zrotation
						JOINT left_shoulder
						{
							OFFSET	-93.9	-5.79999	48.7
							CHANNELS 3  Xrotation Yrotation Zrotation
							JOINT left_elbow
							{
								OFFSET	-291.4	-30.8	15.2
								CHANNELS 3  Xrotation Yrotation Zrotation
								JOINT left_lowarm_twist
								{
									OFFSET	-110.7	-3.89999	13.6
									CHANNELS 3  Xrotation Yrotation Zrotation
									JOINT left_hand
									{
										OFFSET	-110.7	-3.89999	13.6
										CHANNELS 3  Xrotation Yrotation Zrotation
										JOINT left_ee
										{
											OFFSET	-80.8	-5.10001	12.1
											CHANNELS 3  Xrotation Yrotation Zrotation
											End Site
											{
												OFFSET	1	0	0
											}
										}
									}
								}
							}
						}
					}
					JOINT right_clavicle
					{
						OFFSET	43.2	22.4	-70.8
						CHANNELS 3  Xrotation Yrotation Zrotation
						JOINT right_shoulder
						{
							OFFSET	93.9	-5.79999	48.7
							CHANNELS 3  Xrotation Yrotation Zrotation
							JOINT right_elbow
							{
								OFFSET	291.4	-30.8	15.2
								CHANNELS 3  Xrotation Yrotation Zrotation
								JOINT right_lowarm_twist
								{
									OFFSET	110.7	-3.89999	13.6
									CHANNELS 3  Xrotation Yrotation Zrotation
									JOINT right_hand
									{
										OFFSET	110.7	-3.89999	13.6
										CHANNELS 3  Xrotation Yrotation Zrotation
										JOINT right_ee
										{
											OFFSET	80.8	-5.10001	12.1
											CHANNELS 3  Xrotation Yrotation Zrotation
											End Site
											{
												OFFSET	1	0	0
											}
										}
									}
								}
							}
						}
					}
				}
			}
		}
	}
	JOINT left_hip
	{
		OFFSET	-82.8	-127.5	0.300001
		CHANNELS 3  Xrotation Yrotation Zrotation
		JOINT left_knee
		{
			OFFSET	-28.2	-396.7	2.2
			CHANNELS 3  Xrotation Yrotation Zrotation
			JOINT left_ankle
			{
				OFFSET	-11.7	-411.3	35.4
				CHANNELS 3  Xrotation Yrotation Zrotation
				JOINT left_toes
				{
					OFFSET	0	-60	-88.6
					CHANNELS 3  Xrotation Yrotation Zrotation
					JOINT left_foot_ee
					{
						OFFSET	-22.5	-16.5	-42.2
						CHANNELS 3  Xrotation Yrotation Zrotation
						End Site
						{
							OFFSET	1	0	0
						}
					}
				}
			}
		}
	}
	JOINT right_hip
	{
		OFFSET	82.8	-127.5	0.300001
		CHANNELS 3  Xrotation Yrotation Zrotation
		JOINT right_knee
		{
			OFFSET	28.2	-396.7	2.2
			CHANNELS 3  Xrotation Yrotation Zrotation
			JOINT right_ankle
			{
				OFFSET	11.7	-411.3	35.4
				CHANNELS 3  Xrotation Yrotation Zrotation
				JOINT right_toes
				{
					OFFSET	0	-60	-88.6
					CHANNELS 3  Xrotation Yrotation Zrotation
					JOINT right_foot_ee
					{
						OFFSET	22.5	-16.5	-42.2
						CHANNELS 3  Xrotation Yrotation Zrotation
						End Site
						{
							OFFSET	1	0	0
						}
					}
				}
			}
		}
	}
}
MOTION
Frames: 14
Frame Time: 0.02
2800.94 716.97 -1473.77 11.8479737382 72.5904553478 -7.90696372219 -1.53991 -0.431364 -2.40129 -1.53674 -0.277735 -2.42385 -1.52187 0.302402 -2.4209 -1.53004 -0.0836116 -2.43827 -4.43258 6.73424 8.46332 -4.24226 5.89526 9.76575 -0.0 0.0 -0.0 8.28927 8.44387 15.8098 22.469 -30.8413 54.745 2.96278 -55.7203 1.56632 4.70946 0.141962 -0.584634 -1.93282 -3.66663 -14.718 -0.0 0.0 -0.0 4.12536 14.3123 -7.03848 -30.9458 8.04529 -71.0328 0.349725 9.82878 -0.0300706 -7.01863 0.299519 -0.845217 -0.306685 -28.227 -9.38174 0.0 0.0 0.0 -19.5716 8.9927 0.510272 0.952603 -0.0403975 -0.140597 41.5995 10.365 -5.01717 -13.6723 0.0 0.0 -0.0 0.0 -0.0 32.8691 5.79018 -6.93057 -8.90134 -0.262886 -1.33942 3.57713 5.76319 0.534613 -38.4591 0.0 0.0 0.0 0.0 0.0 
2621.90103598 721.726 -1514.34689815 25.05400708 81.4035848972 -22.1950950845 -0.694169 -0.376311 -2.09542 -0.691759 -0.242243 -2.1151 -0.681006 0.23293 -2.11615 -0.68724 -0.104121 -2.12638 -0.74122 5.4453 3.42798 -0.692444 6.97981 4.27969 -0.0 0.0 -0.0 1.63344 9.45719 3.95555 11.7537 -24.9356 68.4825 2.47029 -50.7368 1.17145 -0.424183 -0.0151387 0.0520565 -1.20917 -1.44713 -8.74767 -0.0 0.0 -0.0 3.10817 13.8954 -4.92168 -18.0601 11.0874 -72.5292 0.565587 15.6517 -0.0777365 -8.88645 0.396508 -1.06352 -0.00527864 -28.9598 -11.3011 0.0 0.0 0.0 -19.0414 4.78396 -0.953096 -14.1799 0.319559 2.14708 29.295 3.06423 -3.81796 -11.8727 0.0 0.0 -0.0 0.0 -0.0 22.4324 6.40191 -6.86965 -12.4259 -0.308987 -1.87819 4.28729 12.2998 0.662448 -34.8769 0.0 0.0 0.0 0.0 0.0 
2622.7754255 721.726 -1518.02855502 22.1158032226 80.3208368092 -19.2192736662 -0.694169 -0.376311 -2.09542 -0.691759 -0.242243 -2.1151 -0.681006 0.23293 -2.11615 -0.68724 -0.104121 -2.12638 -0.74122 5.4453 3.42798 -0.692444 6.97981 4.27969 -0.0 0.0 -0.0 1.63344 9.45719 3.95555 11.7537 -24.9356 68.4825 2.47029 -50.7368 1.17145 -0.424183 -0.0151387 0.0520565 -1.20917 -1.44713 -8.74767 -0.0 0.0 -0.0 3.10817 13.8954 -4.92168 -18.0601 11.0874 -72.5292 0.565587 15.6517 -0.0777365 -8.88645 0.396508 -1.06352 -0.00527864 -28.9598 -11.3011 0.0 0.0 0.0 -19.0414 4.78396 -0.953096 -14.1799 0.319559 2.14708 29.295 3.06423 -3.81796 -11.8727 0.0 0.0 -0.0 0.0 -0.0 22.4324 6.40191 -6.86965 -12.4259 -0.308987 -1.87819 4.28729 12.2998 0.662448 -34.8769 0.0 0.0 0.0 0.0 0.0 
2608.61193493 725.115 -1521.51734327 22.5402998681 79.4197223941 -19.7814686535 -0.657008 -0.320581 -1.98505 -0.654837 -0.193644 -2.00142 -0.64651 0.253918 -1.99467 -0.652057 -0.0642238 -2.00974 -0.198267 6.2166 3.30602 -0.137498 8.39828 4.21666 -0.0 0.0 -0.0 0.467803 9.25689 1.91114 10.8164 -24.6088 70.6917 2.2679 -48.3206 1.01745 -0.432741 -0.0154481 0.0531057 -1.12629 -0.521691 -7.77504 -0.0 0.0 -0.0 3.154 14.2561 -4.98674 -16.3765 12.165 -72.3811 0.569445 15.7532 -0.0787805 -8.84971 0.394532 -1.05925 0.0726917 -28.986 -11.7388 0.0 0.0 0.0 -17.951 4.48454 -0.866406 -17.3557 0.317745 2.63427 26.9212 4.51424 -3.5522 -12.4335 0.0 0.0 -0.0 0.0 -0.0 20.5633 6.53383 -7.09772 -12.2029 -0.307053 -1.84402 6.52318 12.0644 0.998966 -32.4263 0.0 0.0 0.0 0.0 0.0 
2609.61630924 725.115 -1525.39498188 20.3840467104 78.3416756734 -17.5840706257 -0.657008 -0.320581 -1.98505 -0.654837 -0.193644 -2.00142 -0.64651 0.253918 -1.99467 -0.652057 -0.0642238 -2.00974 -0.198267 6.2166 3.30602 -0.137498 8.39828 4.21666 -0.0 0.0 -0.0 0.467803 9.25689 1.91114 10.8164 -24.6088 70.6917 2.2679 -48.3206 1.01745 -0.432741 -0.0154481 0.0531057 -1.12629 -0.521691 -7.77504 -0.0 0.0 -0.0 3.154 14.2561 -4.98674 -16.3765 12.165 -72.3811 0.569445 15.7532 -0.0787805 -8.84971 0.394532 -1.05925 0.0726917 -28.986 -11.7388 0.0 0.0 0.0 -17.951 4.48454 -0.866406 -17.3557 0.317745 2.63427 26.9212 4.51424 -3.5522 -12.4335 0.0 0.0 -0.0 0.0 -0.0 20.5633 6.53383 -7.09772 -12.2029 -0.307053 -1.84402 6.52318 12.0644 0.998966 -32.4263 0.0 0.0 0.0 0.0 0.0 
2567.55897265 731.992 -1522.50639191 27.9372899054 76.9218782498 -25.7423167338 -0.976129 -0.272007 -1.79267 -0.974355 -0.157403 -1.80634 -0.967982 0.256182 -1.795 -0.972477 -0.0304721 -1.81293 -1.78112 5.78204 2.31592 -1.73719 8.58735 3.18213 -0.0 0.0 -0.0 -1.03698 10.007 -0.603111 8.20633 -24.6431 75.7963 1.75649 -41.0233 0.657175 -2.36993 -0.0895081 0.289366 -1.15692 0.164451 -7.67614 -0.0 0.0 -0.0 3.0825 13.4663 -4.90521 -12.9322 15.0534 -69.8554 0.674173 18.4676 -0.109602 -9.19583 0.41326 -1.09937 0.0479551 -29.0442 -11.6227 0.0 0.0 0.0 -12.849 3.93844 -1.39291 -34.6745 -0.163174 5.23859 23.5704 10.6651 -3.17052 -9.72321 0.0 0.0 -0.0 0.0 -0.0 14.5259 8.89921 -6.50191 -10.5766 -0.288931 -1.59514 12.982 10.7071 1.92347 -30.5887 0.0 0.0 0.0 0.0 0.0 
2557.72000439 731.762 -1523.20872966 27.6738738132 77.3127524043 -25.6555756553 -1.03801 -0.144674 -1.70328 -1.0364 -0.0360125 -1.70903 -1.03415 0.354326 -1.6723 -1.03804 0.0858108 -1.70726 -2.70931 6.61933 2.65881 -2.65796 9.92953 3.70351 -0.0 0.0 -0.0 -1.48273 10.4374 -1.30793 7.49917 -23.948 76.9615 1.63208 -38.9519 0.577213 -2.99008 -0.114902 0.364463 -1.21461 1.19635 -7.6029 -0.0 0.0 -0.0 3.26482 13.7156 -5.26804 -10.7785 15.3183 -69.8024 0.640079 17.5927 -0.0990486 -8.83608 0.393799 -1.05767 0.0729642 -28.9906 -11.7418 0.0 0.0 0.0 -11.1075 3.91942 -1.6185 -38.8464 -0.395013 5.83612 24.8485 10.68 -3.32123 -9.01893 0.0 0.0 -0.0 0.0 -0.0 13.1755 9.50938 -6.40617 -9.06626 -0.265781 -1.36456 14.799 10.8747 2.17759 -29.7073 0.0 0.0 0.0 0.0 0.0 
2558.31529934 731.762 -1526.05201301 26.3530274434 76.7152644674 -24.3000836891 -1.03801 -0.144674 -1.70328 -1.0364 -0.0360125 -1.70903 -1.03415 0.354326 -1.6723 -1.03804 0.0858108 -1.70726 -2.70931 6.61933 2.65881 -2.65796 9.92953 3.70351 -0.0 0.0 -0.0 -1.48273 10.4374 -1.30793 7.49917 -23.948 76.9615 1.63208 -38.9519 0.577213 -2.99008 -0.114902 0.364463 -1.21461 1.19635 -7.6029 -0.0 0.0 -0.0 3.26482 13.7156 -5.26804 -10.7785 15.3183 -69.8024 0.640079 17.5927 -0.0990486 -8.83608 0.393799 -1.05767 0.0729642 -28.9906 -11.7418 0.0 0.0 0.0 -11.1075 3.91942 -1.6185 -38.8464 -0.395013 5.83612 24.8485 10.68 -3.32123 -9.01893 0.0 0.0 -0.0 0.0 -0.0 13.1755 9.50938 -6.40617 -9.06626 -0.265781 -1.36456 14.799 10.8747 2.17759 -29.7073 0.0 0.0 0.0 0.0 0.0 
2558.99316974 731.762 -1529.10430748 25.0598177882 76.064861315 -22.9695365893 -1.03801 -0.144674 -1.70328 -1.0364 -0.0360125 -1.70903 -1.03415 0.354326 -1.6723 -1.03804 0.0858108 -1.70726 -2.70931 6.61933 2.65881 -2.65796 9.92953 3.70351 -0.0 0.0 -0.0 -1.48273 10.4374 -1.30793 7.49917 -23.948 76.9615 1.63208 -38.9519 0.577213 -2.99008 -0.114902 0.364463 -1.21461 1.19635 -7.6029 -0.0 0.0 -0.0 3.26482 13.7156 -5.26804 -10.7785 15.3183 -69.8024 0.640079 17.5927 -0.0990486 -8.83608 0.393799 -1.05767 0.0729642 -28.9906 -11.7418 0.0 0.0 0.0 -11.1075 3.91942 -1.6185 -38.8464 -0.395013 5.83612 24.8485 10.68 -3.32123 -9.01893 0.0 0.0 -0.0 0.0 -0.0 13.1755 9.50938 -6.40617 -9.06626 -0.265781 -1.36456 14.799 10.8747 2.17759 -29.7073 0.0 0.0 0.0 0.0 0.0 
2542.45102403 731.394 -1527.53965535 28.5108441526 75.2137742222 -26.9659242977 -1.15777 -0.0271556 -1.48727 -1.15655 0.0675274 -1.48598 -1.15747 0.407412 -1.43065 -1.16028 0.176381 -1.47702 -2.19392 6.51963 2.56971 -2.14073 9.76247 3.56651 -0.0 0.0 -0.0 -1.80815 10.7534 -1.81716 6.22945 -24.0862 78.0839 1.28497 -32.4767 0.374264 -2.84885 -0.109048 0.347385 -1.0345 1.50427 -6.25841 -0.0 0.0 -0.0 3.57217 16.1088 -5.71141 -9.56427 17.0851 -69.9259 0.673046 18.4388 -0.109245 -7.97604 0.348342 -0.957503 0.137875 -28.9911 -12.0995 0.0 0.0 0.0 -6.16167 2.20825 -2.32724 -50.2101 -1.24051 7.36314 21.7626 14.0298 -2.96927 -9.00025 0.0 0.0 -0.0 0.0 -0.0 9.53917 10.3538 -5.89111 -6.27701 -0.207082 -0.940599 18.06 11.9151 2.63345 -29.4173 0.0 0.0 0.0 0.0 0.0 
2543.54848983 731.394 -1532.56912439 26.6185991374 74.2232906974 -25.0044089417 -1.15777 -0.0271556 -1.48727 -1.15655 0.0675274 -1.48598 -1.15747 0.407412 -1.43065 -1.16028 0.176381 -1.47702 -2.19392 6.51963 2.56971 -2.14073 9.76247 3.56651 -0.0 0.0 -0.0 -1.80815 10.7534 -1.81716 6.22945 -24.0862 78.0839 1.28497 -32.4767 0.374264 -2.84885 -0.109048 0.347385 -1.0345 1.50427 -6.25841 -0.0 0.0 -0.0 3.57217 16.1088 -5.71141 -9.56427 17.0851 -69.9259 0.673046 18.4388 -0.109245 -7.97604 0.348342 -0.957503 0.137875 -28.9911 -12.0995 0.0 0.0 0.0 -6.16167 2.20825 -2.32724 -50.2101 -1.24051 7.36314 21.7626 14.0298 -2.96927 -9.00025 0.0 0.0 -0.0 0.0 -0.0 9.53917 10.3538 -5.89111 -6.27701 -0.207082 -0.940599 18.06 11.9151 2.63345 -29.4173 0.0 0.0 0.0 0.0 0.0 
2531.97514367 732.654 -1535.12840426 29.0246016171 75.9652129464 -27.8241531316 -1.16222 -0.416813 -1.34809 -1.16127 -0.330193 -1.37188 -1.15235 -0.00614122 -1.41103 -1.15505 -0.228889 -1.39236 -2.3057 6.54111 2.3215 -2.2534 10.0094 3.31602 -0.0 0.0 -0.0 -1.55498 10.7236 -1.38812 5.19889 -23.9766 78.5135 1.03947 -27.2444 0.251908 -2.62095 -0.0996891 0.319796 -0.943772 2.35012 -5.2785 -0.0 0.0 -0.0 3.81419 16.8665 -6.16134 -8.61546 17.3564 -69.5721 0.736671 20.0483 -0.130217 -6.63189 0.28033 -0.799633 0.198881 -28.7522 -12.3561 0.0 0.0 0.0 -2.49972 5.20559 -4.49061 -54.5265 -1.63883 7.89547 19.7765 16.0109 -2.73555 -8.76562 0.0 0.0 -0.0 0.0 -0.0 6.83379 10.7907 -5.03273 -1.91283 -0.0740202 -0.284207 17.937 11.256 2.60685 -29.4915 0.0 0.0 0.0 0.0 0.0 
2534.30717508 732.654 -1544.57878752 25.5486057183 74.1676061667 -24.2271730412 -1.16222 -0.416813 -1.34809 -1.16127 -0.330193 -1.37188 -1.15235 -0.00614122 -1.41103 -1.15505 -0.228889 -1.39236 -2.3057 6.54111 2.3215 -2.2534 10.0094 3.31602 -0.0 0.0 -0.0 -1.55498 10.7236 -1.38812 5.19889 -23.9766 78.5135 1.03947 -27.2444 0.251908 -2.62095 -0.0996891 0.319796 -0.943772 2.35012 -5.2785 -0.0 0.0 -0.0 3.81419 16.8665 -6.16134 -8.61546 17.3564 -69.5721 0.736671 20.0483 -0.130217 -6.63189 0.28033 -0.799633 0.198881 -28.7522 -12.3561 0.0 0.0 0.0 -2.49972 5.20559 -4.49061 -54.5265 -1.63883 7.89547 19.7765 16.0109 -2.73555 -8.76562 0.0 0.0 -0.0 0.0 -0.0 6.83379 10.7907 -5.03273 -1.91283 -0.0740202 -0.284207 17.937 11.256 2.60685 -29.4915 0.0 0.0 0.0 0.0 0.0 
2523.07386035 733.669 -1549.09007253 30.9973009898 75.7779972405 -30.1324388458 -1.26758 -0.52627 -1.13431 -1.26698 -0.45303 -1.16549 -1.25693 -0.170883 -1.2387 -1.25888 -0.364355 -1.19618 -3.04334 6.46082 2.93004 -2.99487 9.46606 3.98249 -0.0 0.0 -0.0 -1.82959 10.9508 -1.82223 4.73746 -25.0998 79.8322 0.8276 -22.2919 0.163061 -3.38872 -0.131656 0.412593 -1.00242 4.53602 -4.70036 -0.0 0.0 -0.0 3.4002 17.3799 -5.23042 -5.43047 17.3771 -69.9581 0.916526 24.4187 -0.19832 -5.8922 0.244493 -0.712098 0.167448 -29.0546 -12.2839 0.0 0.0 0.0 1.85298 4.43439 -5.21453 -58.232 -2.01213 8.32778 20.6573 17.882 -2.86254 -10.8985 0.0 0.0 -0.0 0.0 -0.0 3.16454 9.7655 -3.83175 1.0657 0.045349 0.157246 21.6131 10.0545 3.06243 -28.2218 0.0 0.0 0.0 0.0 0.0 
